HIERARCHY
ROOT hip
{
	OFFSET 0.000000 0.000000 0.000000
	CHANNELS 6 Xposition Yposition Zposition Xrotation Zrotation Yrotation 
	JOINT abdomen
	{
		OFFSET 0.000000 3.422050 0.000000
		CHANNELS 3 Xrotation Zrotation Yrotation 
		JOINT chest
		{
			OFFSET 0.000000 8.486693 -0.684411
			CHANNELS 3 Xrotation Zrotation Yrotation 
			JOINT neck
			{
				OFFSET 0.000000 10.266162 -0.273764
				CHANNELS 3 Xrotation Zrotation Yrotation 
				JOINT head
				{
					OFFSET 0.000000 3.148285 0.000000
					CHANNELS 3 Xrotation Zrotation Yrotation 
					End Site
					{
						OFFSET 0.000000 3.148289 0.000000
					}
				}
			}
			JOINT lCollar
			{
				OFFSET 3.422053 6.707223 -0.821293
				CHANNELS 3 Yrotation Zrotation Xrotation 
				JOINT lShldr
				{
					OFFSET 3.285171 0.000000 0.000000
					CHANNELS 3 Zrotation Yrotation Xrotation 
					JOINT lForeArm
					{
						OFFSET 10.129278 0.000000 0.000000
						CHANNELS 3 Yrotation Zrotation Xrotation 
						JOINT lHand
						{
							OFFSET 8.486692 0.000000 0.000000
							CHANNELS 3 Zrotation Yrotation Xrotation 
							End Site
							{
								OFFSET 4.106464 0.000000 0.000000
							}
						}
					}
				}
			}
			JOINT rCollar
			{
				OFFSET -3.558935 6.707223 -0.821293
				CHANNELS 3 Yrotation Zrotation Xrotation 
				JOINT rShldr
				{
					OFFSET -3.148289 0.000000 0.000000
					CHANNELS 3 Zrotation Yrotation Xrotation 
					JOINT rForeArm
					{
						OFFSET -10.266159 0.000000 0.000000
						CHANNELS 3 Yrotation Zrotation Xrotation 
						JOINT rHand
						{
							OFFSET -8.349810 0.000000 0.000000
							CHANNELS 3 Zrotation Yrotation Xrotation 
							End Site
							{
								OFFSET -4.106464 0.000000 0.000000
							}
						}
					}
				}
			}
		}
	}
	JOINT lThigh
	{
		OFFSET 5.338403 -1.642589 1.368821
		CHANNELS 3 Xrotation Zrotation Yrotation 
		JOINT lShin
		{
			OFFSET -2.053232 -20.121670 0.000000
			CHANNELS 3 Xrotation Zrotation Yrotation 
			JOINT lFoot
			{
				OFFSET 0.000000 -19.300380 -1.231939
				CHANNELS 3 Xrotation Yrotation Zrotation 
				End Site
				{
					OFFSET 0.000000 -2.463878 4.653993
				}
			}
		}
	}
	JOINT rThigh
	{
		OFFSET -5.338403 -1.642589 1.368821
		CHANNELS 3 Xrotation Zrotation Yrotation 
		JOINT rShin
		{
			OFFSET 2.053232 -20.121670 0.000000
			CHANNELS 3 Xrotation Zrotation Yrotation 
			JOINT rFoot
			{
				OFFSET 0.000000 -19.300380 -1.231939
				CHANNELS 3 Xrotation Yrotation Zrotation 
				End Site
				{
					OFFSET 0.000000 -2.463878 4.653993
				}
			}
		}
	}
}
MOTION
Frames: 15
Frame Time: 0.049897
0.000000 43.528500 0.000000 0.000000 0.000000 0.000000 0.000000 0.000000 0.000000 0.000000 0.000000 0.000000 0.000000 0.000000 0.000000 0.000000 0.000000 0.000000 0.000000 0.000000 0.000000 0.000000 0.000000 0.000000 0.000000 0.000000 0.000000 0.000000 0.000000 0.000000 0.000000 0.000000 0.000000 0.000000 0.000000 0.000000 0.000000 0.000000 0.000000 0.000000 0.000000 0.000000 0.000000 0.000000 0.000000 0.000000 0.000000 0.000000 0.000000 0.000000 0.000000 0.000000 0.000000 0.000000 0.000000 0.000000 0.000000 0.000000 0.000000 0.000000 
0.501617 17.056561 -0.459583 28.997015 0.000000 0.000000 9.360734 -1.272163 -0.941071 37.076458 -0.373010 -0.433079 0.000000 0.000000 0.000000 0.000000 0.000000 0.000000 -28.419542 -7.409676 -2.936002 -21.000261 -57.001682 -30.003963 -5.001647 3.998272 -20.000868 25.225391 2.018456 2.890872 28.771421 7.352886 -3.188807 24.992571 62.999126 -7.007014 1.998712 -5.000996 -20.000753 -26.365770 -1.519576 3.030485 -74.087448 22.363108 -6.999692 127.661575 24.411966 -1.764237 49.925320 -3.525406 -19.801857 -73.999954 -22.440887 7.174964 127.576050 -24.521469 1.817639 50.390514 3.939749 19.813587 
0.501617 16.922058 -0.384155 27.400482 0.000000 0.000000 11.172886 -1.271444 -0.940614 37.076458 -0.373011 -0.433079 0.000000 0.000000 0.000000 0.000000 0.000000 0.000000 -27.046673 -7.730871 -2.891252 -22.795437 -58.814594 -26.730019 -5.445127 4.023799 -19.613049 24.946878 2.811099 3.359262 27.380131 7.680004 -3.131942 26.450567 64.450371 -5.139174 2.331299 -5.020133 -19.612591 -26.024149 -2.335804 3.500076 -72.776337 23.523729 -6.983882 127.661575 24.411966 -1.764237 49.693565 -3.153700 -18.703192 -72.694725 -23.599329 7.148603 127.576050 -24.521469 1.817639 50.137020 3.540886 18.716259 
0.501617 16.787558 -0.308727 25.798906 0.000000 0.000000 12.992452 -1.270737 -0.940133 37.076458 -0.373010 -0.433079 0.000000 0.000000 0.000000 0.000000 0.000000 0.000000 -25.669144 -8.051690 -2.838570 -24.898771 -60.569355 -23.159090 -5.888958 4.046339 -19.224880 24.674341 3.606897 3.824681 25.983934 8.006469 -3.066857 28.106375 65.879944 -3.075530 2.664115 -5.037029 -19.224201 -25.688581 -3.155810 3.965681 -71.447914 24.688114 -6.938480 127.661575 24.411966 -1.764237 49.454357 -2.785857 -17.601461 -71.372047 -24.761253 7.092690 127.576050 -24.521469 1.817639 49.875534 3.146237 17.615631 
0.501617 16.653055 -0.233299 24.192892 0.000000 0.000000 14.818559 -1.270043 -0.939628 37.076458 -0.373011 -0.433079 0.000000 0.000000 0.000000 0.000000 0.000000 0.000000 -24.287251 -8.371841 -2.777927 -27.351351 -62.251221 -19.250443 -6.333099 4.065885 -18.836409 24.407772 4.405674 4.287215 24.583157 8.331975 -2.993529 29.992348 67.282616 -0.783649 2.997132 -5.051682 -18.835613 -25.359055 -3.979398 4.427381 -70.101166 25.855083 -6.862357 127.661591 24.411966 -1.764236 49.207817 -2.422124 -16.496830 -70.030914 -25.925507 7.006097 127.576050 -24.521471 1.817641 49.606167 2.756067 16.511860 
0.501617 16.518553 -0.157871 22.583050 0.000000 0.000000 16.650307 -1.269364 -0.939099 37.076458 -0.373010 -0.433079 0.000000 0.000000 0.000000 0.000000 0.000000 0.000000 -22.901323 -8.691035 -2.709308 -30.196198 -63.843262 -14.961418 -6.777503 4.082430 -18.447672 24.147144 5.207257 4.746950 23.178131 8.656216 -2.911951 32.147003 68.652435 1.774908 3.330322 -5.064087 -18.446857 -25.035540 -4.806371 4.885258 -68.735046 27.023438 -6.754336 127.661575 24.411966 -1.764236 48.954014 -2.062739 -15.389448 -68.670288 -27.090889 6.887662 127.576050 -24.521469 1.817639 49.329037 2.370638 15.405105 
0.501617 16.384052 -0.082443 20.970003 0.000000 0.000000 18.486784 -1.268700 -0.938548 37.076458 -0.373010 -0.433079 0.000000 0.000000 0.000000 0.000000 0.000000 0.000000 -21.511683 -9.008979 -2.632710 -31.851721 -65.631264 -11.832433 -7.222128 4.095968 -18.058706 23.892454 6.011469 5.203976 21.769196 8.978888 -2.822131 34.615517 69.981888 4.645378 3.663654 -5.074241 -18.057953 -24.717995 -5.636533 5.339393 -67.348457 28.191914 -6.613213 127.661575 24.411966 -1.764236 48.693077 -1.707936 -14.279490 -67.289070 -28.256151 6.736183 127.576050 -24.521469 1.817639 49.044254 1.990206 14.295525 
0.501617 16.249550 -0.007015 19.354387 0.000000 0.000000 20.327061 -1.268053 -0.937974 37.076458 -0.373010 -0.433079 0.000000 0.000000 0.000000 0.000000 0.000000 0.000000 -20.118658 -9.325377 -2.548144 -33.882046 -67.377258 -8.337047 -7.666931 4.106499 -17.669575 23.643690 6.818137 5.658380 20.356695 9.299676 -2.724087 37.450447 71.262024 7.880297 3.997102 -5.082141 -17.668934 -24.406403 -6.469684 5.789869 -65.940277 29.359234 -6.437737 127.661575 24.411964 -1.764237 48.425121 -1.357948 -13.167127 -65.886108 -29.420006 6.550416 127.576050 -24.521469 1.817639 48.751942 1.615022 13.183287 
0.501617 16.115047 0.068414 17.736835 0.000000 0.000000 22.170206 -1.267423 -0.937379 37.076458 -0.373010 -0.433079 0.000000 0.000000 0.000000 0.000000 0.000000 0.000000 -18.722601 -9.639938 -2.455634 -36.364315 -69.067207 -4.398465 -8.111865 4.114016 -17.280308 23.400837 7.627083 6.110251 18.940990 9.618280 -2.617859 38.614746 72.681084 9.453377 4.330635 -5.087788 -17.279829 -24.100733 -7.305628 6.236773 -64.509285 30.524054 -6.226620 127.661575 24.411966 -1.764237 48.150261 -1.013003 -12.052538 -64.460243 -30.581161 6.329086 127.576050 -24.521469 1.817639 48.452244 1.245337 12.068575 
0.501617 15.980546 0.143842 16.117996 0.000000 0.000000 24.015253 -1.266813 -0.936763 37.076458 -0.373010 -0.433079 0.000000 0.000000 0.000000 0.000000 0.000000 0.000000 -17.323849 -9.952374 -2.355220 -39.391148 -70.683670 0.075505 -8.556889 4.118518 -16.890953 23.163889 8.438133 6.559686 17.522446 9.934396 -2.503496 40.022114 74.089890 11.268297 4.664225 -5.091177 -16.890665 -23.800961 -8.144165 6.680189 -63.054237 31.685019 -5.978532 127.661575 24.411966 -1.764237 47.868649 -0.673325 -10.935916 -63.010147 -31.738230 6.070859 127.576050 -24.521471 1.817640 48.145302 0.881392 10.951570 
0.501617 15.846045 0.219270 14.498505 0.000000 0.000000 25.861261 -1.266222 -0.936127 37.076458 -0.373010 -0.433079 0.000000 0.000000 0.000000 0.000000 0.000000 0.000000 -15.922756 -10.262396 -2.246953 -40.804447 -72.449722 2.958268 -9.001951 4.120002 -16.501547 22.932844 9.251112 7.006775 16.101421 10.247720 -2.381063 41.739941 75.484642 13.392417 4.997846 -5.092309 -16.501474 -23.507059 -8.985099 7.120207 -61.573830 32.840725 -5.692111 127.661575 24.411966 -1.764237 47.580410 -0.339128 -9.817444 -61.534576 -32.889835 5.774397 127.576050 -24.521471 1.817641 47.831284 0.523422 9.832464 
0.501617 15.711543 0.294698 12.879016 0.000000 0.000000 27.707268 -1.265651 -0.935473 37.076458 -0.373010 -0.433079 0.000000 0.000000 0.000000 0.000000 0.000000 0.000000 -14.519683 -10.569716 -2.130900 -42.695492 -74.190445 6.313125 -9.447020 4.118472 -16.112150 22.707685 10.065842 7.451613 14.678301 10.557956 -2.250642 43.861160 76.859985 15.918697 5.331466 -5.091184 -16.112284 -23.219006 -9.828233 7.556914 -60.066666 33.989708 -5.365948 127.661575 24.411966 -1.764237 47.285721 -0.010626 -8.697327 -60.032139 -34.034531 5.438293 127.576050 -24.521469 1.817639 47.510334 0.171659 8.711453 
0.501617 15.577041 0.370126 11.260174 0.000000 0.000000 29.552317 -1.265103 -0.934802 37.076458 -0.373010 -0.433079 0.000000 0.000000 0.000000 0.000000 0.000000 0.000000 -13.114990 -10.874052 -2.007142 -45.225933 -75.893021 10.301265 -9.892040 4.113922 -15.722790 22.488409 10.882150 7.894295 13.253465 10.864810 -2.112327 46.516579 78.208618 18.977922 5.665058 -5.087803 -15.723123 -22.936775 -10.673368 7.990401 -58.531395 35.130516 -4.998621 127.661575 24.411966 -1.764237 46.984726 0.311977 -7.575768 -58.501472 -35.170864 5.061138 127.576035 -24.521467 1.817640 47.182644 -0.173675 7.588748 
0.501617 15.442539 0.445554 9.642624 0.000000 0.000000 31.395456 -1.264577 -0.934113 37.076458 -0.373010 -0.433079 0.000000 0.000000 0.000000 0.000000 0.000000 0.000000 -11.709048 -11.175130 -1.875771 -48.628288 -77.539047 15.154793 -10.336975 4.106360 -15.333526 22.275019 11.699860 8.334920 11.827301 11.168001 -1.966230 49.893303 79.519958 22.757189 5.998591 -5.082165 -15.334019 -22.660343 -11.520308 8.420756 -56.966576 36.261650 -4.588664 127.661575 24.411966 -1.764237 46.677589 0.628485 -6.452971 -56.941162 -36.297352 4.641483 127.576050 -24.521469 1.817639 46.848400 -0.512364 6.464555 
0.501617 15.308038 0.520982 8.027009 0.000000 0.000000 33.235733 -1.264074 -0.933409 37.076458 -0.373010 -0.433079 0.000000 0.000000 0.000000 0.000000 0.000000 0.000000 -10.302232 -11.472679 -1.736896 -49.476208 -79.269989 17.467970 -10.781774 4.095783 -14.944387 22.067507 12.518795 8.773585 10.400201 11.467241 -1.812473 50.238174 80.906731 23.508377 6.332037 -5.074272 -14.944997 -22.389694 -12.368857 8.848075 -55.370720 37.381546 -4.134603 127.661575 24.411966 -1.764237 46.364498 0.938704 -5.329160 -55.349728 -37.412453 4.177857 127.576050 -24.521469 1.817639 46.507778 -0.844201 5.339093 
